<?xml version="1.0" encoding="UTF-8" standalone="no"?><!DOCTYPE svg PUBLIC "-//W3C//DTD SVG 1.1//EN" "http://www.w3.org/Graphics/SVG/1.1/DTD/svg11.dtd"><svg width="100%" height="100%" viewBox="0 0 2502 581" version="1.1" xmlns="http://www.w3.org/2000/svg" xmlns:xlink="http://www.w3.org/1999/xlink" xml:space="preserve" xmlns:serif="http://www.serif.com/" style="fill-rule:evenodd;clip-rule:evenodd;stroke-linejoin:round;stroke-miterlimit:2;"><rect id="Artboard1" x="0" y="0" width="2501.76" height="580.317" style="fill:none;"/><path d="M200.417,300c-0,0 5.416,0.833 9.583,-12.917c4.167,-13.75 12.5,-48.75 7.083,-61.25c-5.416,-12.5 -13.333,-24.166 -22.5,-20c-9.583,4.167 -17.083,17.917 -18.75,23.75c-1.666,5.834 -10.833,27.917 -10.416,33.75c0.416,5.834 5.833,11.25 7.083,13.334c1.25,2.5 27.917,23.333 27.917,23.333Z" style="fill-rule:nonzero;"/><path d="M137.083,292.917c11.25,10.833 40,44.583 41.667,47.083c1.667,2.5 13.75,17.083 -4.167,17.917c-17.916,0.833 -60.833,3.75 -70.416,-0c-9.584,-3.75 -12.084,-6.667 -7.917,-17.917c4.167,-10.833 13.75,-36.667 19.167,-47.083c5.833,-10.834 16.25,-5.834 21.666,-0Z" style="fill-rule:nonzero;"/><path d="M204.583,175.833c2.5,1.667 10,-2.083 10.417,-5.833c0.417,-3.75 -0.833,-16.667 -2.083,-21.25c-1.25,-4.583 -1.25,-7.083 -3.334,-8.333c-2.5,-1.25 -3.333,-2.917 -5.416,3.75c-2.084,6.666 -2.084,15.416 -2.084,18.75c1.25,3.75 0,11.25 2.5,12.916Z" style="fill-rule:nonzero;"/><path d="M208.333,15.417c0,-0 -197.083,247.5 -197.083,354.583c0,107.083 85.417,189.167 197.083,188.333c111.667,-0.833 194.167,-83.333 195,-188.333c0.834,-105 -195,-354.583 -195,-354.583Zm-124.583,310.416c10,-22.5 25,-52.916 30,-57.916c-0,-0 5.833,-17.917 13.75,-17.917c7.917,-0 17.5,15.833 17.5,15.833l2.083,3.75c0,0 0.834,-21.25 7.5,-33.75c6.667,-12.916 23.334,-49.166 31.667,-52.083c8.333,-2.917 7.5,-2.083 8.333,-10.417c0.834,-8.333 2.917,-41.666 5.834,-45.416c2.916,-3.75 2.083,-14.167 7.083,-14.167c8.75,-0 41.25,54.167 45.833,64.167c4.584,10 17.917,17.916 28.75,40.833c10.834,22.917 51.25,95.833 55.834,115.417c4.583,19.583 4.583,36.25 4.583,36.25l-267.083,-0c-0,-0.834 -1.667,-21.667 8.333,-44.584Zm252.083,70.834c-5.416,3.75 -2.083,4.583 -7.5,8.75c-5.416,4.166 -7.916,2.083 -9.166,2.5c-1.25,0.833 -6.667,12.083 -11.667,18.75c-5,6.666 -22.5,19.166 -27.5,23.333c-5,4.167 -15.833,12.917 -27.083,15c-11.25,2.083 -30,4.583 -34.584,5c-4.583,0.417 -17.916,2.917 -22.083,3.333c-4.167,0.417 -8.333,2.917 -8.333,2.917c-0,-0 6.666,2.083 10,2.5c3.333,0.417 15.416,-0.833 19.166,-0c3.75,0.833 23.334,-2.083 23.334,-0c-0,2.083 0.416,13.75 -3.334,16.667c-3.75,2.916 -37.083,14.583 -45.833,17.916c-8.75,2.917 -10.417,8.75 -15.833,5.834c-5.417,-2.917 -22.084,-22.084 -21.25,-25.834c0.833,-3.75 -0,-9.166 -2.084,-10.833c-2.083,-1.667 -7.916,-3.333 -10,-6.25c-2.083,-2.917 -2.083,-4.583 -6.25,-11.667c-4.166,-7.083 -13.333,-15.833 -13.333,-20.833c-0,-5 -1.25,-7.083 3.75,-7.917c5,-0.833 19.583,-4.166 25.833,-5.833c0,-0 26.667,0.417 29.167,-0.833c2.5,-1.25 7.083,0.833 6.667,-2.084c-0.417,-2.916 -12.084,-7.5 -16.25,-7.916c-4.167,-0.417 -28.334,0.833 -36.25,2.083c-7.917,1.25 -15.834,3.333 -29.167,3.333c-13.333,0 -21.667,2.084 -25.833,-5.833c-4.167,-7.917 -9.167,-13.75 -8.75,-19.167c0.416,-5.833 -0,-16.666 -0,-16.666l2.5,-9.584l267.083,0c1.667,15 0,19.584 -5.417,23.334Z" style="fill-rule:nonzero;"/><path d="M540.417,170l25.833,0l0,310l-25.833,-0l-0,-310Zm309.583,52.5l-23.333,11.25l-0,0.417c-31.667,-63.334 -172.917,-54.167 -172.917,26.666l0,127.917c0,80.833 141.25,90 172.917,26.667l23.333,11.25c-41.667,85.833 -222.083,72.916 -222.083,-37.917l-0,-127.917c-0,-108.75 180,-125.416 222.083,-38.333Zm238.333,-27.083l-168.75,-0l0,116.666l155.417,0l0,26.25l-155.417,0l0,115.834l168.75,-0l0,25.833l-194.583,-0l-0,-310.417l194.583,0l0,25.834Zm314.167,265.416l81.25,-290.833l27.083,0l-89.583,310l-37.5,0l-72.083,-228.75l-72.5,228.75l-37.5,0l-89.584,-310l27.084,0l81.25,290.833l78.75,-250l25,0l78.333,250Zm199.583,-290.833l37.5,0l112.084,310l-26.667,0l-37.083,-103.333l-132.917,-0l-36.25,103.333l-27.083,0l110.416,-310Zm76.25,180.833l-57.5,-161.666l-57.5,161.666l115,0Zm275,-181.25l0,25.834l-103.333,-0l0,284.583l-25.833,0l-0,-284.583l-103.334,-0l0,-25.834l232.5,0Zm233.334,25.834l-168.75,-0l-0,116.666l155.416,0l0,26.25l-155.416,0l-0,115.834l168.75,-0l-0,25.833l-194.584,0l0,-310.417l194.584,0l-0,25.834Zm276.25,284.583l-31.25,0l-104.167,-131.25l-59.167,0l0,131.25l-25.833,0l-0,-310l117.083,0c58.334,0 102.5,25.833 103.75,90c0,64.167 -47.916,88.333 -103.333,88.333l-0.833,0l103.75,131.667Zm-102.917,-155c47.917,0 77.5,-15.833 77.5,-65c-0,-48.75 -32.5,-65.417 -77.5,-64.167l-91.667,0l0,129.167l91.667,0Z" style="fill-rule:nonzero;"/></svg>