<?xml version="1.0" encoding="UTF-8" standalone="no"?><!DOCTYPE svg PUBLIC "-//W3C//DTD SVG 1.1//EN" "http://www.w3.org/Graphics/SVG/1.1/DTD/svg11.dtd"><svg width="100%" height="100%" viewBox="0 0 355 355" version="1.1" xmlns="http://www.w3.org/2000/svg" xmlns:xlink="http://www.w3.org/1999/xlink" xml:space="preserve" xmlns:serif="http://www.serif.com/" style="fill-rule:evenodd;clip-rule:evenodd;stroke-miterlimit:10;"><g id="Layer_2"><g id="Layer_2-2"><path d="M177.771,3.042c-0,-0 125.583,160.125 125,227.375c-0.583,67.25 -53.5,120.208 -125,120.833c-71.5,0.625 -126.459,-52.167 -126.459,-120.833c0,-68.667 126.459,-227.375 126.459,-227.375Z" style="fill:#00a7d7;fill-rule:nonzero;"/><path d="M177.771,69.708c5.75,0 25.916,30.959 28.833,37.25c1.667,3.77 3.06,7.655 4.167,11.625c1.107,3.971 7.25,0.959 14.042,14.5c6.791,13.542 33.041,61.625 35.958,74.125c1.762,7.631 2.739,15.421 2.916,23.25l-171.25,0c-0.273,-9.636 1.547,-19.218 5.334,-28.083c6.25,-14.5 15.958,-33.833 19.333,-37.25c0,0 3.875,-11.583 8.708,-11.583c4.834,-0 11.125,10.125 11.125,10.125l1.459,2.458c0.26,-7.499 1.898,-14.886 4.833,-21.792c4.167,-8.333 15,-31.458 20.292,-33.333c5.291,-1.875 4.875,-1.458 5.333,-6.792c0.459,-5.333 2.917,-26.583 4.834,-29.166c1.916,-2.584 0.75,-5.334 4.083,-5.334Z" style="fill:#fff;fill-rule:nonzero;stroke:#fff;stroke-width:4.17px;"/><path d="M166.188,191.958c-0,0 3.416,0.459 6.041,-8.333c2.625,-8.792 7.917,-31.208 4.584,-39.167c-3.334,-7.958 -8.334,-15.5 -14.5,-12.833c-5.691,3.508 -9.97,8.908 -12.084,15.25c-1.208,3.875 -7,17.917 -6.75,21.542c0.719,3.224 2.304,6.192 4.584,8.583c0.958,1.417 18.125,14.958 18.125,14.958Z" style="fill:#8bcbee;fill-rule:nonzero;"/><path d="M128.938,182.208c7.166,7.084 25.666,28.542 26.624,30.25c0.959,1.709 8.709,10.875 -2.666,11.375c-11.375,0.5 -38.959,2.417 -45.209,0c-6.25,-2.416 -7.75,-4.166 -5.083,-11.375c2.667,-7.208 8.708,-23.458 12.5,-30.25c3.792,-6.791 10.209,-3.541 13.833,0Z" style="fill:#8bcbee;fill-rule:nonzero;"/><path d="M175.396,106.083c1.667,1.084 6.542,-1.208 6.75,-3.625c0.074,-4.543 -0.331,-9.082 -1.209,-13.541c-0.708,-2.917 -0.666,-4.625 -2.124,-5.334c-1.459,-0.708 -2.209,-1.916 -3.417,2.417c-1.026,3.941 -1.434,8.017 -1.208,12.083c0.25,2.209 -0.5,6.875 1.208,8Z" style="fill:#8bcbee;fill-rule:nonzero;"/><path d="M263.813,230.417c0.458,9.666 -0.75,12.5 -4.167,15c-3.417,2.5 -1.208,2.875 -4.833,5.541c-3.625,2.667 -5.084,1.209 -5.792,1.709c-0.708,0.5 -4.167,7.708 -7.5,12.083c-3.333,4.375 -14.542,12.5 -17.667,15c-4.981,4.523 -10.943,7.832 -17.416,9.667c-7.25,1.458 -19.334,2.916 -22.25,3.166c-2.917,0.25 -11.459,2.125 -14.125,2.125c-1.876,0.273 -3.677,0.925 -5.292,1.917c2.122,0.728 4.294,1.299 6.5,1.708c2.166,0.25 9.916,-0.5 12.5,0c2.583,0.5 15,-1.375 15,0c-0,1.375 0.25,8.917 -2.167,10.584c-2.417,1.666 -23.708,9.458 -29.167,11.375c-5.458,1.916 -6.791,5.583 -10.166,3.625c-3.375,-1.959 -14.042,-14.042 -13.542,-16.667c0.59,-2.432 0.054,-5.006 -1.458,-7c-1.459,-1.208 -5.084,-2.167 -6.542,-4.167c-1.458,-2 -1.458,-2.875 -4.167,-7.5c-2.708,-4.625 -8.333,-10.125 -8.333,-13.291c0,-3.167 -0.708,-4.584 2.417,-5.084c3.125,-0.5 12.5,-2.666 16.666,-3.875c6.226,0.183 12.458,0.03 18.667,-0.458c1.625,-0.75 4.542,0.458 4.167,-1.458c-0.375,-1.917 -7.709,-4.834 -10.375,-5.084c-7.766,-0.015 -15.528,0.388 -23.25,1.209c-6.131,1.278 -12.364,2.003 -18.625,2.166c-8.334,0 -13.75,1.209 -16.417,-3.625c-2.667,-4.833 -5.833,-8.708 -5.583,-12.5c0.25,-3.791 -0,-10.625 -0,-10.625l1.708,-6.041l171.209,0.5Z" style="fill:#8bcbee;fill-rule:nonzero;"/></g></g></svg>