<svg xmlns="http://www.w3.org/2000/svg" xmlns:xlink="http://www.w3.org/1999/xlink" viewBox="0 0 386.17 83.54"><defs><style>.cls-1{fill:#00a7d7;}.cls-2{fill:#fff;stroke:#fff;stroke-miterlimit:10;}.cls-3{fill:#8bcbee;}.cls-4{fill:url(#linear-gradient);}</style><linearGradient id="linear-gradient" x1="234.81" y1="15.91" x2="231.44" y2="80.27" gradientUnits="userSpaceOnUse"><stop offset="0" stop-color="#a9cbdb"/><stop offset="0.13" stop-color="#a4cadb"/><stop offset="0.29" stop-color="#95c7db"/><stop offset="0.46" stop-color="#7cc1da"/><stop offset="0.64" stop-color="#59bad9"/><stop offset="0.84" stop-color="#2cb0d8"/><stop offset="1" stop-color="#00a7d7"/></linearGradient></defs><g id="Layer_2" data-name="Layer 2"><g id="Layer_2-2" data-name="Layer 2"><path class="cls-1" d="M30.35,0s30.14,38.43,30,54.57-12.84,28.85-30,29S0,71.05,0,54.57,30.35,0,30.35,0Z"/><path class="cls-2" d="M30.35,16c1.38,0,6.22,7.43,6.92,8.94a20.52,20.52,0,0,1,1,2.79s1.74.23,3.37,3.48S49.57,46,50.27,49a27.57,27.57,0,0,1,.7,5.58H9.87a16,16,0,0,1,1.28-6.74c1.5-3.48,3.83-8.12,4.64-8.94,0,0,.93-2.78,2.09-2.78s2.67,2.43,2.67,2.43l.35.59a14.67,14.67,0,0,1,1.16-5.23c1-2,3.6-7.55,4.87-8s1.17-.35,1.28-1.63.7-6.38,1.16-7S29.55,16,30.35,16Z"/><path class="cls-3" d="M27.57,45.34s.82.11,1.45-2,1.9-7.49,1.1-9.4-2-3.72-3.48-3.08a6.84,6.84,0,0,0-2.9,3.66c-.29.93-1.68,4.3-1.62,5.17a4.36,4.36,0,0,0,1.1,2.06C23.45,42.09,27.57,45.34,27.57,45.34Z"/><path class="cls-3" d="M18.63,43c1.72,1.7,6.16,6.85,6.39,7.26s2.09,2.61-.64,2.73-9.35.58-10.85,0-1.86-1-1.22-2.73,2.09-5.63,3-7.26S17.76,42.15,18.63,43Z"/><path class="cls-3" d="M29.78,24.73c.4.26,1.57-.29,1.62-.87a15.51,15.51,0,0,0-.29-3.25c-.17-.7-.16-1.11-.51-1.28s-.53-.46-.82.58a9.44,9.44,0,0,0-.29,2.9C29.55,23.34,29.37,24.46,29.78,24.73Z"/><path class="cls-3" d="M51,54.57c.11,2.32-.18,3-1,3.6s-.29.69-1.16,1.33-1.22.29-1.39.41-1,1.85-1.8,2.9-3.49,3-4.24,3.6a10.46,10.46,0,0,1-4.18,2.32c-1.74.35-4.64.7-5.34.76S29.14,70,28.5,70a3.35,3.35,0,0,0-1.27.46,11,11,0,0,0,1.56.41c.52.06,2.38-.12,3,0s3.6-.33,3.6,0,.06,2.14-.52,2.54-5.69,2.27-7,2.73-1.63,1.34-2.44.87-3.37-3.37-3.25-4a2,2,0,0,0-.35-1.68c-.35-.29-1.22-.52-1.57-1s-.35-.69-1-1.8-2-2.43-2-3.19-.17-1.1.58-1.22,3-.64,4-.93a41.64,41.64,0,0,0,4.48-.11c.39-.18,1.09.11,1-.35s-1.85-1.16-2.49-1.22a51.85,51.85,0,0,0-5.58.29,25.09,25.09,0,0,1-4.47.52c-2,0-3.3.29-3.94-.87s-1.4-2.09-1.34-3,0-2.55,0-2.55l.41-1.45Z"/><path class="cls-4" d="M80.19,23H84.3V72.34H80.19Zm49.25,8.36-3.69,1.81v.07c-5-10.1-27.52-8.64-27.52,4.25V57.85c0,12.89,22.5,14.35,27.52,4.25l3.69,1.81c-6.62,13.66-35.32,11.64-35.32-6.06V37.51C94.12,20.16,122.75,17.52,129.44,31.38Zm37.9-4.32H140.52V45.59h24.73v4.18H140.52V68.23h26.82v4.11H136.41V23h30.93Zm50,42.22,13-46.26h4.32L220.36,72.34h-6L202.87,36,191.31,72.34h-6L171,23h4.32l13,46.26L200.85,29.5h4ZM249.13,23h6L273,72.34h-4.32L262.72,55.9H241.54l-5.78,16.44h-4.32Zm12.12,28.77-9.12-25.7L243,51.79ZM305,23v4.11H288.57V72.34h-4.12V27.06H268V23Zm37.13,4.11H315.32V45.59h24.73v4.18H315.32V68.23h26.82v4.11H311.21V23h30.93Zm44,45.28h-5l-16.58-20.9h-9.4v20.9h-4.11V23h18.6c9.26,0,16.3,4.11,16.51,14.35,0,10.24-7.59,14.07-16.44,14.07h-.14ZM369.73,47.68c7.59,0,12.33-2.51,12.33-10.31S376.9,27,369.73,27.13H355.17V47.68Z"/></g></g></svg>