<?xml version="1.0" encoding="UTF-8" standalone="no"?><!DOCTYPE svg PUBLIC "-//W3C//DTD SVG 1.1//EN" "http://www.w3.org/Graphics/SVG/1.1/DTD/svg11.dtd"><svg width="100%" height="100%" viewBox="0 0 2480 560" version="1.1" xmlns="http://www.w3.org/2000/svg" xmlns:xlink="http://www.w3.org/1999/xlink" xml:space="preserve" xmlns:serif="http://www.serif.com/" style="fill-rule:evenodd;clip-rule:evenodd;stroke-miterlimit:10;"><rect id="Artboard1" x="0" y="0" width="2479.28" height="559.381" style="fill:none;"/><path d="M212.5,11.25c0,0 195.833,249.583 195,354.583c-0.833,105 -83.333,187.5 -195,188.334c-111.667,0.833 -197.083,-81.25 -197.083,-188.334c-0,-107.083 197.083,-354.583 197.083,-354.583Z" style="fill:#00aeef;fill-rule:nonzero;"/><path d="M211.667,109.167c8.75,-0 41.25,54.166 45.833,64.166c4.583,10 17.917,17.917 28.75,40.834c10.833,22.5 51.25,95.833 55.833,115.416c4.584,19.584 4.584,36.25 4.584,36.25l-267.084,0c0,0 -1.666,-21.25 8.334,-43.75c10,-22.5 25,-52.916 30,-57.916c-0,-0 5.833,-17.917 13.75,-17.917c7.916,-0 17.5,15.833 17.5,15.833l2.083,3.75c0,0 0.833,-21.25 7.5,-33.75c6.667,-12.5 23.333,-49.166 31.667,-52.083c8.333,-2.917 7.5,-2.083 8.333,-10.417c0.833,-8.333 2.917,-41.666 5.833,-45.416c2.917,-4.584 2.084,-15 7.084,-15Z" style="fill:#fff;fill-rule:nonzero;stroke:#fff;stroke-width:4.17px;"/><g><path d="M204.583,295.833c0,0 5.417,0.834 9.584,-12.916c4.166,-13.75 12.5,-48.75 7.083,-61.25c-5.417,-12.5 -13.333,-24.167 -22.5,-20c-9.583,4.166 -17.083,17.916 -18.75,23.75c-1.667,5.833 -10.833,27.916 -10.417,33.75c0.417,5.833 5.834,11.25 7.084,13.333c1.25,2.5 27.916,23.333 27.916,23.333Z" style="fill:#5bc4f0;fill-rule:nonzero;"/><path d="M141.25,288.75c11.25,10.833 40,44.583 41.667,47.083c1.666,2.5 13.75,17.084 -4.167,17.917c-17.917,0.833 -60.833,3.75 -70.417,0c-9.583,-3.75 -12.083,-6.667 -7.916,-17.917c4.166,-10.833 13.75,-36.666 19.166,-47.083c5.834,-10.833 16.25,-5.833 21.667,0Z" style="fill:#5bc4f0;fill-rule:nonzero;"/><path d="M208.75,171.667c2.5,1.666 10,-2.084 10.417,-5.834c0.416,-3.75 -0.834,-16.666 -2.084,-21.25c-1.25,-4.583 -1.25,-7.083 -3.333,-8.333c-2.5,-1.25 -3.333,-2.917 -5.417,3.75c-2.083,6.667 -2.083,15.417 -2.083,18.75c1.25,3.75 0,11.25 2.5,12.917Z" style="fill:#5bc4f0;fill-rule:nonzero;"/><path d="M346.667,368.75c0.833,15 -1.25,19.583 -6.25,23.333c-5.417,3.75 -2.084,4.584 -7.5,8.75c-5.834,4.167 -7.917,2.084 -9.167,2.5c-1.25,0.834 -6.667,12.084 -11.667,18.75c-5,6.667 -22.5,19.167 -27.5,23.334c-5,4.166 -15.833,12.916 -27.083,15c-11.25,2.083 -30,4.583 -34.583,5c-4.584,0.416 -17.917,2.916 -22.084,3.333c-4.166,0.417 -8.333,2.917 -8.333,2.917c-0,-0 6.667,2.083 10,2.5c3.333,0.416 15.417,-0.834 19.167,-0c3.75,0.833 23.333,-2.084 23.333,-0c-0,2.083 0.417,13.75 -3.333,16.666c-3.75,2.5 -37.084,14.584 -45.834,17.917c-8.75,2.917 -10.416,8.75 -15.833,5.833c-5.417,-2.916 -22.083,-22.083 -21.25,-25.833c0.833,-3.75 -0,-9.167 -2.083,-10.833c-2.084,-2.084 -7.917,-3.334 -10,-6.25c-2.084,-2.917 -2.084,-4.584 -6.25,-11.667c-4.167,-7.083 -13.334,-15.833 -13.334,-20.833c0,-5 -1.25,-7.084 3.75,-7.917c5,-0.833 19.584,-4.167 25.834,-5.833c-0,-0 26.666,0.416 29.166,-0.834c2.5,-1.25 7.084,0.834 6.667,-2.083c-0.417,-2.917 -12.083,-7.5 -16.25,-7.917c-4.167,-0.416 -28.333,0.834 -36.25,2.084c-7.917,1.25 -15.833,3.333 -29.167,3.333c-13.333,0 -21.666,2.083 -25.833,-5.833c-4.167,-7.5 -9.167,-13.75 -8.75,-19.167c0.417,-5.833 -0,-16.667 -0,-16.667l2.5,-9.583l267.917,0Z" style="fill:#5bc4f0;fill-rule:nonzero;"/></g><path d="M544.583,165.833l25.834,0l-0,310l-25.834,0l0,-310Zm309.584,52.5l-23.334,11.25l0,0.417c-31.666,-63.333 -172.916,-54.167 -172.916,26.667l-0,127.916c-0,80.834 141.25,90 172.916,26.667l23.334,11.25c-41.667,85.833 -222.084,72.917 -222.084,-37.917l0,-127.916c0,-108.75 180,-125.417 222.084,-38.334Zm238.333,-27.083l-168.75,0l0,116.667l155.417,-0l-0,26.25l-155.417,-0l0,115.833l168.75,0l0,25.833l-194.583,0l-0,-310.416l194.583,-0l0,25.833Zm314.167,265.417l81.25,-290.834l27.083,0l-89.583,310l-37.5,0l-72.084,-228.75l-72.5,228.75l-37.5,0l-89.583,-310l27.083,0l81.25,290.834l78.75,-250l25,-0l78.334,250Zm199.583,-290.834l37.5,0l112.083,310l-26.666,0l-37.084,-103.333l-132.916,-0l-36.25,103.333l-27.084,0l110.417,-310Zm76.25,180.834l-57.5,-161.667l-57.5,161.667l115,-0Zm275,-181.25l0,25.833l-103.333,0l-0,284.583l-25.834,0l0,-284.583l-103.333,-0l0,-25.833l232.5,-0Zm233.333,25.833l-168.75,0l0,116.667l155.417,-0l0,26.25l-155.417,-0l0,115.833l168.75,0l0,25.833l-194.583,0l0,-310.416l194.583,-0l0,25.833Zm276.25,284.583l-31.25,0l-104.166,-131.25l-59.167,0l0,131.25l-25.833,0l-0,-310l117.083,0c58.333,0 102.5,25.834 103.75,90c0,64.167 -47.917,88.334 -103.333,88.334l-0.834,-0l103.75,131.666Zm-102.916,-155c47.916,0 77.5,-15.833 77.5,-65c-0,-48.75 -32.5,-65.416 -77.5,-64.166l-91.667,-0l0,129.166l91.667,0Z" style="fill:url(#_Linear1);fill-rule:nonzero;"/><defs><linearGradient id="_Linear1" x1="0" y1="0" x2="1" y2="0" gradientUnits="userSpaceOnUse" gradientTransform="matrix(135.731,-394.193,394.193,135.731,1441.89,506.769)"><stop offset="0" style="stop-color:#00aeef;stop-opacity:1"/><stop offset="0.02" style="stop-color:#00aeef;stop-opacity:1"/><stop offset="0.25" style="stop-color:#5bc4f0;stop-opacity:1"/><stop offset="0.65" style="stop-color:#51b9af;stop-opacity:1"/><stop offset="0.69" style="stop-color:#61b3af;stop-opacity:1"/><stop offset="0.77" style="stop-color:#7ea8b0;stop-opacity:1"/><stop offset="0.87" style="stop-color:#a291ad;stop-opacity:1"/><stop offset="1" style="stop-color:#ca69a8;stop-opacity:1"/><stop offset="1" style="stop-color:#ca69a8;stop-opacity:1"/></linearGradient></defs></svg>